<svg width="22" height="22" viewBox="0 0 22 22" fill="none" xmlns="http://www.w3.org/2000/svg">
<path d="M10.23 12.92C11.828 13.534 12.79 14.507 14 16M10.23 12.92C8.287 12.173 6.825 11.978 5.5 12M10.23 12.92C11.745 11.254 12.74 10.053 16.5 9.5M9 9H9.001" stroke="black" stroke-width="2" stroke-linecap="round" stroke-linejoin="round"/>
<path d="M11 17C14.3137 17 17 14.3137 17 11C17 7.68629 14.3137 5 11 5C7.68629 5 5 7.68629 5 11C5 14.3137 7.68629 17 11 17Z" stroke="black" stroke-width="2" stroke-linecap="round" stroke-linejoin="round"/>
<path d="M21 11C21.0019 12.3765 20.7186 13.7384 20.168 15M11 21C12.3135 21.0018 13.6144 20.744 14.8279 20.2414C16.0414 19.7387 17.1436 19.0011 18.071 18.071M1.00001 11C0.998171 9.68652 1.256 8.38563 1.75866 7.17213C2.26133 5.95863 2.99891 4.85646 3.92901 3.92901M11 1.00001C9.62353 0.998131 8.26158 1.28142 7.00001 1.83201M7.00001 20.168C4.68811 19.1575 2.84256 17.3119 1.83201 15M14.832 2.00001C17.1439 3.01056 18.9895 4.85611 20 7.16801" stroke="black" stroke-width="2" stroke-linecap="round" stroke-linejoin="round"/>
</svg>
